ffmpeg version N-82167-g5e96558 Copyright (c) 2000-2016 the FFmpeg developers
  built with gcc 5.4.0 (Ubuntu 5.4.0-6ubuntu1~16.04.2) 20160609
  configuration: --prefix=/root/ffmpeg_build --pkg-config-flags=--static --extra-cflags=-I/root/ffmpeg_build/include --extra-ldflags=-L/root/ffmpeg_build/lib --bindir=/root/bin --enable-gpl --enable-libass --enable-libfdk-aac --enable-libfreetype --enable-libmp3lame --enable-libopus --enable-libtheora --enable-libvorbis --enable-libx264 --enable-libx265 --enable-nonfree
  libavutil      55. 35.100 / 55. 35.100
  libavcodec     57. 65.100 / 57. 65.100
  libavformat    57. 57.100 / 57. 57.100
  libavdevice    57.  2.100 / 57.  2.100
  libavfilter     6. 66.100 /  6. 66.100
  libswscale      4.  3.100 /  4.  3.100
  libswresample   2.  4.100 /  2.  4.100
  libpostproc    54.  2.100 / 54.  2.100
Input #0, matroska,webm, from '/media/yubikiri/bot/queue/3AnimePahe_Detective_Conan_-_055_720p_Fansub.mkv':
  Metadata:
    title           : 3|Text||0|0
    ALBUM           : Anime
    LANGUAGE        : Undefined
    ENCODER         : Lavf57.57.100
  Duration: 00:24:28.59, start: 0.000000, bitrate: 976 kb/s
    Stream #0:0: Video: mpeg4 (Advanced Simple Profile), yuv420p, 640x480 [SAR 1:1 DAR 4:3], 23.98 fps, 23.98 tbr, 1k tbn, 23.98 tbc (default)
    Metadata:
      DURATION        : 00:24:28.592000000
    Stream #0:1: Audio: mp3, 48000 Hz, stereo, s16p, 128 kb/s (default)
    Metadata:
      DURATION        : 00:24:28.560000000
[libx264 @ 0x327b6a0] using SAR=1/1
[libx264 @ 0x327b6a0] using cpu capabilities: MMX2 SSE2Fast SSSE3 SSE4.2 AVX FMA3 AVX2 LZCNT BMI2
[libx264 @ 0x327b6a0] profile High, level 3.1
[libx264 @ 0x327b6a0] 264 - core 148 r2643 5c65704 - H.264/MPEG-4 AVC codec - Copyleft 2003-2015 - http://www.videolan.org/x264.html - options: cabac=1 ref=8 deblock=1:1:1 analyse=0x3:0x133 me=umh subme=7 psy=1 psy_rd=0.00:0.00 mixed_ref=1 me_range=8 chroma_me=1 trellis=0 8x8dct=1 cqm=0 deadzone=21,11 fast_pskip=1 chroma_qp_offset=0 threads=8 lookahead_threads=2 sliced_threads=0 nr=0 decimate=1 interlaced=0 bluray_compat=0 constrained_intra=0 bframes=3 b_pyramid=2 b_adapt=2 b_bias=0 direct=1 weightb=1 open_gop=0 weightp=2 keyint=240 keyint_min=24 scenecut=40 intra_refresh=0 rc_lookahead=60 rc=crf mbtree=1 crf=27.0 qcomp=0.60 qpmin=0 qpmax=69 qpstep=4 ip_ratio=1.40 aq=1:1.00
[libfdk_aac @ 0x327efc0] Note, the VBR setting is unsupported and only works with some parameter combinations
Output #0, mp4, to '/media/yubikiri/bot/queue/3AnimePahe_Detective_Conan_-_055_720p_Fansub.mkv_encoded.mp4':
  Metadata:
    encoder         : Lavf57.57.100
    Stream #0:0: Video: h264 (libx264) ([33][0][0][0] / 0x0021), yuv420p, 640x480 [SAR 1:1 DAR 4:3], q=-1--1, 23.98 fps, 24k tbn, 23.98 tbc (default)
    Metadata:
      encoder         : Lavc57.65.100 libx264
    Side data:
      cpb: bitrate max/min/avg: 0/0/0 buffer size: 0 vbv_delay: -1
    Stream #0:1: Audio: aac (libfdk_aac) (HE-AACv2) ([64][0][0][0] / 0x0040), 48000 Hz, stereo, s16, 48 kb/s (default)
    Metadata:
      encoder         : Lavc57.65.100 libfdk_aac
Stream mapping:
  Stream #0:0 -> #0:0 (mpeg4 (native) -> h264 (libx264))
  Stream #0:1 -> #0:1 (mp3 (native) -> aac (libfdk_aac))
Press [q] to stop, [?] for help
frame=   96 fps=0.0 q=32.0 size=      54kB time=00:00:04.16 bitrate= 105.6kbits/s dup=1 drop=0 speed=8.27x    frame=  130 fps=130 q=32.0 size=     142kB time=00:00:05.61 bitrate= 206.6kbits/s dup=1 drop=0 speed=5.59x    frame=  165 fps=108 q=32.0 size=     245kB time=00:00:07.01 bitrate= 286.3kbits/s dup=1 drop=0 speed=4.58x    frame=  211 fps=103 q=32.0 size=     350kB time=00:00:08.93 bitrate= 320.3kbits/s dup=1 drop=0 speed=4.34x    frame=  264 fps=103 q=32.0 size=     471kB time=00:00:11.15 bitrate= 345.7kbits/s dup=1 drop=0 speed=4.35x    frame=  307 fps=100 q=32.0 size=     581kB time=00:00:12.95 bitrate= 367.2kbits/s dup=1 drop=0 speed=4.21x    frame=  368 fps=101 q=32.0 size=     751kB time=00:00:15.51 bitrate= 396.7kbits/s dup=1 drop=0 speed=4.24x    frame=  408 fps= 98 q=32.0 size=     868kB time=00:00:17.17 bitrate= 414.2kbits/s dup=1 drop=0 speed=4.11x    frame=  457 fps= 97 q=32.0 size=     995kB time=00:00:19.22 bitrate= 424.2kbits/s dup=1 drop=0 speed=4.09x    frame=  505 fps= 96 q=32.0 size=    1112kB time=00:00:21.22 bitrate= 429.0kbits/s dup=1 drop=0 speed=4.05x    frame=  561 fps= 98 q=32.0 size=    1218kB time=00:00:23.57 bitrate= 423.2kbits/s dup=1 drop=0 speed= 4.1x    frame=  608 fps= 97 q=32.0 size=    1325kB time=00:00:25.49 bitrate= 425.7kbits/s dup=1 drop=0 speed=4.06x    frame=  683 fps=101 q=32.0 size=    1429kB time=00:00:28.65 bitrate= 408.7kbits/s dup=1 drop=0 speed=4.22x    frame=  758 fps=104 q=32.0 size=    1514kB time=00:00:31.76 bitrate= 390.3kbits/s dup=1 drop=0 speed=4.36x    frame=  817 fps=105 q=32.0 size=    1632kB time=00:00:34.24 bitrate= 390.6kbits/s dup=1 drop=0 speed= 4.4x    frame=  872 fps=105 q=32.0 size=    1725kB time=00:00:36.54 bitrate= 386.7kbits/s dup=1 drop=0 speed=4.41x    frame=  937 fps=107 q=32.0 size=    1792kB time=00:00:39.23 bitrate= 374.1kbits/s dup=1 drop=0 speed=4.46x    frame=  973 fps=105 q=32.0 size=    1896kB time=00:00:40.76 bitrate= 381.0kbits/s dup=1 drop=0 speed=4.38x    frame= 1016 fps=104 q=32.0 size=    2031kB time=00:00:42.51 bitrate= 391.3kbits/s dup=1 drop=0 speed=4.34x    frame= 1064 fps=103 q=32.0 size=    2123kB time=00:00:44.52 bitrate= 390.7kbits/s dup=1 drop=0 speed=4.31x    frame= 1126 fps=104 q=32.0 size=    2222kB time=00:00:47.12 bitrate= 386.2kbits/s dup=1 drop=0 speed=4.35x    frame= 1169 fps=103 q=32.0 size=    2367kB time=00:00:48.91 bitrate= 396.3kbits/s dup=1 drop=0 speed=4.31x    frame= 1215 fps=102 q=32.0 size=    2469kB time=00:00:50.83 bitrate= 397.9kbits/s dup=1 drop=0 speed=4.28x    frame= 1261 fps=102 q=32.0 size=    2577kB time=00:00:52.75 bitrate= 400.1kbits/s dup=1 drop=0 speed=4.25x    frame= 1313 fps=102 q=32.0 size=    2668kB time=00:00:54.89 bitrate= 398.1kbits/s dup=1 drop=0 speed=4.25x    frame= 1391 fps=104 q=32.0 size=    2767kB time=00:00:58.21 bitrate= 389.3kbits/s dup=1 drop=0 speed=4.34x    frame= 1467 fps=105 q=32.0 size=    2850kB time=00:01:01.33 bitrate= 380.6kbits/s dup=1 drop=0 speed=4.41x    frame= 1532 fps=106 q=32.0 size=    2959kB time=00:01:04.06 bitrate= 378.4kbits/s dup=1 drop=0 speed=4.44x    frame= 1586 fps=106 q=32.0 size=    3043kB time=00:01:06.32 bitrate= 375.8kbits/s dup=1 drop=0 speed=4.44x    frame= 1634 fps=106 q=32.0 size=    3144kB time=00:01:08.33 bitrate= 376.9kbits/s dup=1 drop=0 speed=4.43x    frame= 1689 fps=106 q=32.0 size=    3239kB time=00:01:10.59 bitrate= 375.9kbits/s dup=1 drop=0 speed=4.43x    frame= 1756 fps=107 q=32.0 size=    3361kB time=00:01:13.40 bitrate= 375.1kbits/s dup=1 drop=0 speed=4.46x    frame= 1831 fps=108 q=32.0 size=    3458kB time=00:01:16.52 bitrate= 370.2kbits/s dup=1 drop=0 speed=4.51x    frame= 1906 fps=109 q=32.0 size=    3571kB time=00:01:19.63 bitrate= 367.4kbits/s dup=1 drop=0 speed=4.56x    frame= 1970 fps=110 q=32.0 size=    3679kB time=00:01:22.32 bitrate= 366.1kbits/s dup=1 drop=0 speed=4.58x    frame= 2002 fps=108 q=32.0 size=    3772kB time=00:01:23.64 bitrate= 369.4kbits/s dup=1 drop=0 speed=4.53x    frame= 2031 fps=107 q=32.0 size=    3871kB time=00:01:24.84 bitrate= 373.8kbits/s dup=1 drop=0 speed=4.47x    frame= 2063 fps=106 q=32.0 size=    4009kB time=00:01:26.20 bitrate= 381.0kbits/s dup=1 drop=0 speed=4.42x    frame= 2100 fps=105 q=32.0 size=    4112kB time=00:01:27.78 bitrate= 383.8kbits/s dup=1 drop=0 speed=4.39x    frame= 2148 fps=105 q=32.0 size=    4215kB time=00:01:29.75 bitrate= 384.7kbits/s dup=1 drop=0 speed=4.37x    frame= 2208 fps=105 q=32.0 size=    4302kB time=00:01:32.26 bitrate= 381.9kbits/s dup=1 drop=0 speed=4.39x    frame= 2308 fps=107 q=32.0 size=    4390kB time=00:01:36.40 bitrate= 373.0kbits/s dup=1 drop=0 speed=4.48x    frame= 2398 fps=109 q=32.0 size=    4493kB time=00:01:40.16 bitrate= 367.5kbits/s dup=1 drop=0 speed=4.55x    frame= 2504 fps=111 q=32.0 size=    4567kB time=00:01:44.59 bitrate= 357.7kbits/s dup=1 drop=0 speed=4.64x    frame= 2546 fps=110 q=32.0 size=    4648kB time=00:01:46.34 bitrate= 358.0kbits/s dup=1 drop=0 speed=4.61x    frame= 2611 fps=111 q=32.0 size=    4718kB time=00:01:49.03 bitrate= 354.5kbits/s dup=1 drop=0 speed=4.62x    frame= 2643 fps=110 q=32.0 size=    4854kB time=00:01:50.40 bitrate= 360.2kbits/s dup=1 drop=0 speed=4.58x    frame= 2686 fps=109 q=32.0 size=    5026kB time=00:01:52.19 bitrate= 367.0kbits/s dup=1 drop=0 speed=4.56x    frame= 2771 fps=110 q=32.0 size=    5175kB time=00:01:55.73 bitrate= 366.3kbits/s dup=1 drop=0 speed=4.61x    frame= 2859 fps=112 q=32.0 size=    5293kB time=00:01:59.40 bitrate= 363.1kbits/s dup=1 drop=0 speed=4.66x    frame= 2928 fps=112 q=32.0 size=    5370kB time=00:02:02.26 bitrate= 359.8kbits/s dup=1 drop=0 speed=4.68x    frame= 2990 fps=112 q=32.0 size=    5507kB time=00:02:04.86 bitrate= 361.3kbits/s dup=1 drop=0 speed=4.69x    frame= 3078 fps=113 q=32.0 size=    5589kB time=00:02:08.53 bitrate= 356.2kbits/s dup=1 drop=0 speed=4.74x    frame= 3159 fps=114 q=32.0 size=    5688kB time=00:02:11.90 bitrate= 353.2kbits/s dup=1 drop=0 speed=4.77x    frame= 3220 fps=114 q=32.0 size=    5825kB time=00:02:14.46 bitrate= 354.9kbits/s dup=1 drop=0 speed=4.78x    frame= 3292 fps=115 q=32.0 size=    5892kB time=00:02:17.45 bitrate= 351.2kbits/s dup=1 drop=0 speed= 4.8x    frame= 3336 fps=114 q=32.0 size=    5994kB time=00:02:19.28 bitrate= 352.5kbits/s dup=1 drop=0 speed=4.77x    frame= 3422 fps=115 q=32.0 size=    6110kB time=00:02:22.91 bitrate= 350.2kbits/s dup=1 drop=0 speed=4.82x    frame= 3473 fps=115 q=32.0 size=    6202kB time=00:02:25.00 bitrate= 350.4kbits/s dup=1 drop=0 speed=4.81x    frame= 3537 fps=115 q=32.0 size=    6296kB time=00:02:27.69 bitrate= 349.2kbits/s dup=1 drop=0 speed=4.81x    frame= 3603 fps=115 q=32.0 size=    6397kB time=00:02:30.42 bitrate= 348.4kbits/s dup=1 drop=0 speed=4.82x    frame= 3661 fps=115 q=32.0 size=    6478kB time=00:02:32.85 bitrate= 347.2kbits/s dup=1 drop=0 speed=4.82x    frame= 3708 fps=115 q=32.0 size=    6603kB time=00:02:34.81 bitrate= 349.4kbits/s dup=1 drop=0 speed=4.81x    frame= 3773 fps=115 q=32.0 size=    6703kB time=00:02:37.54 bitrate= 348.5kbits/s dup=1 drop=0 speed=4.82x    frame= 3838 fps=116 q=32.0 size=    6782kB time=00:02:40.23 bitrate= 346.7kbits/s dup=1 drop=0 speed=4.82x    frame= 3898 fps=116 q=32.0 size=    6853kB time=00:02:42.75 bitrate= 344.9kbits/s dup=1 drop=0 speed=4.83x    frame= 3965 fps=116 q=29.0 size=    6924kB time=00:02:45.56 bitrate= 342.6kbits/s dup=1 drop=0 speed=4.84x    frame= 4052 fps=117 q=32.0 size=    7013kB time=00:02:49.15 bitrate= 339.6kbits/s dup=1 drop=0 speed=4.87x    frame= 4151 fps=118 q=32.0 size=    7106kB time=00:02:53.29 bitrate= 335.9kbits/s dup=1 drop=0 speed=4.92x    frame= 4234 fps=119 q=32.0 size=    7170kB time=00:02:56.74 bitrate= 332.3kbits/s dup=1 drop=0 speed=4.95x    frame= 4317 fps=119 q=32.0 size=    7273kB time=00:03:00.20 bitrate= 330.6kbits/s dup=1 drop=0 speed=4.97x    frame= 4393 fps=120 q=32.0 size=    7372kB time=00:03:03.40 bitrate= 329.3kbits/s dup=1 drop=0 speed=4.99x    frame= 4465 fps=120 q=32.0 size=    7448kB time=00:03:06.39 bitrate= 327.3kbits/s dup=1 drop=0 speed=   5x    frame= 4531 fps=120 q=32.0 size=    7600kB time=00:03:09.16 bitrate= 329.1kbits/s dup=1 drop=0 speed=5.01x    frame= 4617 fps=121 q=32.0 size=    7705kB time=00:03:12.70 bitrate= 327.5kbits/s dup=1 drop=0 speed=5.04x    frame= 4687 fps=121 q=32.0 size=    7829kB time=00:03:15.64 bitrate= 327.8kbits/s dup=1 drop=0 speed=5.05x    frame= 4773 fps=122 q=32.0 size=    7902kB time=00:03:19.23 bitrate= 324.9kbits/s dup=1 drop=0 speed=5.08x    frame= 4828 fps=121 q=32.0 size=    8033kB time=00:03:21.53 bitrate= 326.5kbits/s dup=1 drop=0 speed=5.07x    frame= 4898 fps=122 q=32.0 size=    8131kB time=00:03:24.43 bitrate= 325.8kbits/s dup=1 drop=0 speed=5.08x    frame= 4965 fps=122 q=32.0 size=    8242kB time=00:03:27.25 bitrate= 325.8kbits/s dup=1 drop=0 speed=5.08x    frame= 5028 fps=122 q=32.0 size=    8335kB time=00:03:29.89 bitrate= 325.3kbits/s dup=1 drop=0 speed=5.09x    frame= 5101 fps=122 q=32.0 size=    8434kB time=00:03:32.88 bitrate= 324.5kbits/s dup=1 drop=0 speed= 5.1x    frame= 5170 fps=122 q=32.0 size=    8520kB time=00:03:35.78 bitrate= 323.4kbits/s dup=1 drop=0 speed= 5.1x    frame= 5236 fps=122 q=32.0 size=    8586kB time=00:03:38.56 bitrate= 321.8kbits/s dup=1 drop=0 speed=5.11x    frame= 5298 fps=122 q=32.0 size=    8707kB time=00:03:41.12 bitrate= 322.6kbits/s dup=1 drop=0 speed= 5.1x    frame= 5348 fps=122 q=32.0 size=    8796kB time=00:03:43.21 bitrate= 322.8kbits/s dup=1 drop=0 speed=5.09x    frame= 5393 fps=122 q=32.0 size=    8877kB time=00:03:45.08 bitrate= 323.1kbits/s dup=1 drop=0 speed=5.08x    frame= 5438 fps=121 q=32.0 size=    8963kB time=00:03:46.96 bitrate= 323.5kbits/s dup=1 drop=0 speed=5.06x    frame= 5502 fps=121 q=32.0 size=    9070kB time=00:03:49.61 bitrate= 323.6kbits/s dup=1 drop=0 speed=5.06x    frame= 5591 fps=122 q=32.0 size=    9152kB time=00:03:53.36 bitrate= 321.3kbits/s dup=1 drop=0 speed=5.09x    frame= 5658 fps=122 q=32.0 size=    9258kB time=00:03:56.13 bitrate= 321.2kbits/s dup=1 drop=0 speed=5.09x    frame= 5708 fps=122 q=32.0 size=    9347kB time=00:03:58.23 bitrate= 321.4kbits/s dup=1 drop=0 speed=5.08x    frame= 5780 fps=122 q=32.0 size=    9431kB time=00:04:01.21 bitrate= 320.3kbits/s dup=1 drop=0 speed=5.09x    frame= 5849 fps=122 q=32.0 size=    9523kB time=00:04:04.11 bitrate= 319.6kbits/s dup=1 drop=0 speed= 5.1x    frame= 5921 fps=122 q=32.0 size=    9618kB time=00:04:07.10 bitrate= 318.8kbits/s dup=1 drop=0 speed=5.11x    frame= 5999 fps=123 q=32.0 size=    9739kB time=00:04:10.34 bitrate= 318.7kbits/s dup=1 drop=0 speed=5.12x    frame= 6083 fps=123 q=32.0 size=    9854kB time=00:04:13.88 bitrate= 318.0kbits/s dup=1 drop=0 speed=5.14x    frame= 6134 fps=123 q=32.0 size=    9988kB time=00:04:16.02 bitrate= 319.6kbits/s dup=1 drop=0 speed=5.13x    frame= 6208 fps=123 q=32.0 size=   10097kB time=00:04:19.09 bitrate= 319.3kbits/s dup=1 drop=0 speed=5.14x    frame= 6272 fps=123 q=32.0 size=   10189kB time=00:04:21.73 bitrate= 318.9kbits/s dup=1 drop=0 speed=5.14x    frame= 6320 fps=123 q=32.0 size=   10283kB time=00:04:23.74 bitrate= 319.4kbits/s dup=1 drop=0 speed=5.13x    frame= 6402 fps=123 q=32.0 size=   10403kB time=00:04:27.15 bitrate= 319.0kbits/s dup=1 drop=0 speed=5.14x    frame= 6480 fps=123 q=32.0 size=   10515kB time=00:04:30.44 bitrate= 318.5kbits/s dup=1 drop=0 speed=5.15x    frame= 6562 fps=124 q=32.0 size=   10600kB time=00:04:33.85 bitrate= 317.1kbits/s dup=1 drop=0 speed=5.16x    frame= 6621 fps=124 q=32.0 size=   10675kB time=00:04:36.33 bitrate= 316.5kbits/s dup=1 drop=0 speed=5.16x    frame= 6699 fps=124 q=32.0 size=   10798kB time=00:04:39.53 bitrate= 316.5kbits/s dup=1 drop=0 speed=5.17x    frame= 6804 fps=125 q=32.0 size=   10891kB time=00:04:43.92 bitrate= 314.2kbits/s dup=1 drop=0 speed= 5.2x    frame= 6875 fps=125 q=32.0 size=   11004kB time=00:04:46.91 bitrate= 314.2kbits/s dup=1 drop=0 speed=5.21x    frame= 6934 fps=125 q=32.0 size=   11085kB time=00:04:49.38 bitrate= 313.8kbits/s dup=1 drop=0 speed= 5.2x    frame= 7011 fps=125 q=32.0 size=   11244kB time=00:04:52.58 bitrate= 314.8kbits/s dup=1 drop=0 speed=5.21x    frame= 7083 fps=125 q=32.0 size=   11355kB time=00:04:55.57 bitrate= 314.7kbits/s dup=1 drop=0 speed=5.22x    frame= 7178 fps=126 q=32.0 size=   11461kB time=00:04:59.54 bitrate= 313.5kbits/s dup=1 drop=0 speed=5.24x    frame= 7263 fps=126 q=32.0 size=   11542kB time=00:05:03.08 bitrate= 312.0kbits/s dup=1 drop=0 speed=5.26x    frame= 7338 fps=126 q=32.0 size=   11666kB time=00:05:06.19 bitrate= 312.1kbits/s dup=1 drop=0 speed=5.27x    frame= 7404 fps=126 q=32.0 size=   11741kB time=00:05:08.97 bitrate= 311.3kbits/s dup=1 drop=0 speed=5.27x    frame= 7448 fps=126 q=32.0 size=   11839kB time=00:05:10.80 bitrate= 312.0kbits/s dup=1 drop=0 speed=5.25x    frame= 7480 fps=125 q=32.0 size=   11938kB time=00:05:12.12 bitrate= 313.3kbits/s dup=1 drop=0 speed=5.23x    frame= 7514 fps=125 q=32.0 size=   12047kB time=00:05:13.57 bitrate= 314.7kbits/s dup=1 drop=0 speed=5.21x    frame= 7548 fps=124 q=32.0 size=   12161kB time=00:05:14.98 bitrate= 316.3kbits/s dup=1 drop=0 speed=5.19x    frame= 7582 fps=124 q=32.0 size=   12260kB time=00:05:16.39 bitrate= 317.4kbits/s dup=1 drop=0 speed=5.17x    frame= 7627 fps=124 q=32.0 size=   12373kB time=00:05:18.27 bitrate= 318.5kbits/s dup=1 drop=0 speed=5.16x    frame= 7672 fps=123 q=32.0 size=   12473kB time=00:05:20.15 bitrate= 319.2kbits/s dup=1 drop=0 speed=5.15x    frame= 7718 fps=123 q=32.0 size=   12578kB time=00:05:22.07 bitrate= 319.9kbits/s dup=1 drop=0 speed=5.14x    frame= 7769 fps=123 q=32.0 size=   12681kB time=00:05:24.20 bitrate= 320.4kbits/s dup=1 drop=0 speed=5.13x    frame= 7818 fps=123 q=32.0 size=   12812kB time=00:05:26.25 bitrate= 321.7kbits/s dup=1 drop=0 speed=5.12x    frame= 7863 fps=122 q=32.0 size=   12917kB time=00:05:28.08 bitrate= 322.5kbits/s dup=1 drop=0 speed=5.11x    frame= 7948 fps=123 q=32.0 size=   13012kB time=00:05:31.67 bitrate= 321.4kbits/s dup=1 drop=0 speed=5.12x    frame= 8026 fps=123 q=32.0 size=   13140kB time=00:05:34.91 bitrate= 321.4kbits/s dup=1 drop=0 speed=5.13x    frame= 8091 fps=123 q=32.0 size=   13264kB time=00:05:37.64 bitrate= 321.8kbits/s dup=1 drop=0 speed=5.13x    frame= 8173 fps=123 q=32.0 size=   13336kB time=00:05:41.05 bitrate= 320.3kbits/s dup=1 drop=0 speed=5.14x    frame= 8237 fps=123 q=32.0 size=   13449kB time=00:05:43.74 bitrate= 320.5kbits/s dup=1 drop=0 speed=5.15x    frame= 8315 fps=124 q=32.0 size=   13562kB time=00:05:46.98 bitrate= 320.2kbits/s dup=1 drop=0 speed=5.15x    frame= 8411 fps=124 q=32.0 size=   13646kB time=00:05:50.95 bitrate= 318.5kbits/s dup=1 drop=0 speed=5.18x    frame= 8488 fps=124 q=32.0 size=   13739kB time=00:05:54.15 bitrate= 317.8kbits/s dup=1 drop=0 speed=5.18x    frame= 8555 fps=124 q=32.0 size=   13827kB time=00:05:56.97 bitrate= 317.3kbits/s dup=1 drop=0 speed=5.19x    frame= 8620 fps=124 q=32.0 size=   13964kB time=00:05:59.70 bitrate= 318.0kbits/s dup=1 drop=0 speed=5.19x    frame= 8669 fps=124 q=32.0 size=   14044kB time=00:06:01.70 bitrate= 318.1kbits/s dup=1 drop=0 speed=5.18x    frame= 8729 fps=124 q=32.0 size=   14124kB time=00:06:04.26 bitrate= 317.6kbits/s dup=1 drop=0 speed=5.17x    frame= 8785 fps=124 q=32.0 size=   14222kB time=00:06:06.57 bitrate= 317.8kbits/s dup=1 drop=0 speed=5.17x    frame= 8845 fps=124 q=32.0 size=   14314kB time=00:06:09.08 bitrate= 317.7kbits/s dup=1 drop=0 speed=5.17x    frame= 8907 fps=124 q=32.0 size=   14366kB time=00:06:11.64 bitrate= 316.7kbits/s dup=1 drop=0 speed=5.17x    frame= 8983 fps=124 q=32.0 size=   14449kB time=00:06:14.84 bitrate= 315.8kbits/s dup=1 drop=0 speed=5.18x    frame= 9042 fps=124 q=32.0 size=   14526kB time=00:06:17.28 bitrate= 315.4kbits/s dup=1 drop=0 speed=5.17x    frame= 9090 fps=124 q=32.0 size=   14626kB time=00:06:19.28 bitrate= 315.9kbits/s dup=1 drop=0 speed=5.16x    frame= 9160 fps=124 q=32.0 size=   14727kB time=00:06:22.18 bitrate= 315.7kbits/s dup=1 drop=0 speed=5.17x    frame= 9241 fps=124 q=32.0 size=   14829kB time=00:06:25.60 bitrate= 315.0kbits/s dup=1 drop=0 speed=5.18x    frame= 9297 fps=124 q=32.0 size=   14933kB time=00:06:27.90 bitrate= 315.4kbits/s dup=1 drop=0 speed=5.17x    frame= 9372 fps=124 q=32.0 size=   15004kB time=00:06:31.06 bitrate= 314.3kbits/s dup=1 drop=0 speed=5.18x    frame= 9427 fps=124 q=32.0 size=   15108kB time=00:06:33.32 bitrate= 314.7kbits/s dup=1 drop=0 speed=5.17x    frame= 9482 fps=124 q=32.0 size=   15235kB time=00:06:35.62 bitrate= 315.5kbits/s dup=1 drop=0 speed=5.17x    frame= 9538 fps=124 q=32.0 size=   15359kB time=00:06:37.97 bitrate= 316.2kbits/s dup=1 drop=0 speed=5.17x    frame= 9595 fps=124 q=32.0 size=   15491kB time=00:06:40.36 bitrate= 317.0kbits/s dup=1 drop=0 speed=5.16x    frame= 9676 fps=124 q=32.0 size=   15588kB time=00:06:43.73 bitrate= 316.3kbits/s dup=1 drop=0 speed=5.17x    frame= 9756 fps=124 q=32.0 size=   15644kB time=00:06:47.10 bitrate= 314.8kbits/s dup=1 drop=0 speed=5.18x    frame= 9801 fps=124 q=32.0 size=   15735kB time=00:06:48.93 bitrate= 315.2kbits/s dup=1 drop=0 speed=5.17x    frame= 9865 fps=124 q=32.0 size=   15867kB time=00:06:51.62 bitrate= 315.8kbits/s dup=1 drop=0 speed=5.17x    frame= 9943 fps=124 q=32.0 size=   15990kB time=00:06:54.87 bitrate= 315.7kbits/s dup=1 drop=0 speed=5.18x    frame=10039 fps=125 q=32.0 size=   16096kB time=00:06:58.88 bitrate= 314.8kbits/s dup=1 drop=0 speed= 5.2x    frame=10126 fps=125 q=32.0 size=   16169kB time=00:07:02.50 bitrate= 313.5kbits/s dup=1 drop=0 speed=5.21x    frame=10200 fps=125 q=32.0 size=   16290kB time=00:07:05.57 bitrate= 313.6kbits/s dup=1 drop=0 speed=5.22x    frame=10295 fps=125 q=32.0 size=   16404kB time=00:07:09.54 bitrate= 312.9kbits/s dup=1 drop=0 speed=5.23x    frame=10362 fps=125 q=32.0 size=   16481kB time=00:07:12.32 bitrate= 312.3kbits/s dup=1 drop=0 speed=5.23x    frame=10402 fps=125 q=32.0 size=   16601kB time=00:07:14.02 bitrate= 313.3kbits/s dup=1 drop=0 speed=5.22x    frame=10463 fps=125 q=32.0 size=   16695kB time=00:07:16.54 bitrate= 313.3kbits/s dup=1 drop=0 speed=5.22x    frame=10537 fps=125 q=32.0 size=   16813kB time=00:07:19.61 bitrate= 313.3kbits/s dup=1 drop=0 speed=5.23x    frame=10619 fps=126 q=32.0 size=   16883kB time=00:07:23.07 bitrate= 312.2kbits/s dup=1 drop=0 speed=5.24x    frame=10682 fps=125 q=32.0 size=   16974kB time=00:07:25.67 bitrate= 312.0kbits/s dup=1 drop=0 speed=5.23x    frame=10740 fps=125 q=32.0 size=   17088kB time=00:07:28.10 bitrate= 312.4kbits/s dup=1 drop=0 speed=5.23x    frame=10818 fps=126 q=32.0 size=   17171kB time=00:07:31.35 bitrate= 311.6kbits/s dup=1 drop=0 speed=5.24x    frame=10889 fps=126 q=32.0 size=   17287kB time=00:07:34.33 bitrate= 311.7kbits/s dup=1 drop=0 speed=5.24x    frame=10967 fps=126 q=32.0 size=   17359kB time=00:07:37.57 bitrate= 310.8kbits/s dup=1 drop=0 speed=5.25x    frame=11058 fps=126 q=32.0 size=   17473kB time=00:07:41.37 bitrate= 310.2kbits/s dup=1 drop=0 speed=5.26x    frame=11155 fps=127 q=32.0 size=   17575kB time=00:07:45.38 bitrate= 309.4kbits/s dup=1 drop=0 speed=5.28x    frame=11222 fps=127 q=32.0 size=   17676kB time=00:07:48.20 bitrate= 309.3kbits/s dup=1 drop=0 speed=5.28x    frame=11276 fps=126 q=32.0 size=   17765kB time=00:07:50.46 bitrate= 309.3kbits/s dup=1 drop=0 speed=5.27x    frame=11339 fps=126 q=32.0 size=   17853kB time=00:07:53.06 bitrate= 309.2kbits/s dup=1 drop=0 speed=5.27x    frame=11409 fps=126 q=32.0 size=   17955kB time=00:07:56.01 bitrate= 309.0kbits/s dup=1 drop=0 speed=5.28x    frame=11500 fps=127 q=32.0 size=   18054kB time=00:07:59.80 bitrate= 308.2kbits/s dup=1 drop=0 speed=5.29x    frame=11596 fps=127 q=32.0 size=   18134kB time=00:08:03.81 bitrate= 307.0kbits/s dup=1 drop=0 speed= 5.3x    frame=11672 fps=127 q=32.0 size=   18216kB time=00:08:06.97 bitrate= 306.4kbits/s dup=1 drop=0 speed=5.31x    frame=11748 fps=127 q=32.0 size=   18345kB time=00:08:10.13 bitrate= 306.6kbits/s dup=1 drop=0 speed=5.31x    frame=11795 fps=127 q=32.0 size=   18430kB time=00:08:12.13 bitrate= 306.8kbits/s dup=1 drop=0 speed=5.31x    frame=11886 fps=127 q=32.0 size=   18507kB time=00:08:15.89 bitrate= 305.7kbits/s dup=1 drop=0 speed=5.32x    frame=11966 fps=128 q=32.0 size=   18642kB time=00:08:19.26 bitrate= 305.9kbits/s dup=1 drop=0 speed=5.33x    frame=12064 fps=128 q=32.0 size=   18708kB time=00:08:23.31 bitrate= 304.5kbits/s dup=1 drop=0 speed=5.34x    frame=12129 fps=128 q=32.0 size=   18835kB time=00:08:26.04 bitrate= 304.9kbits/s dup=1 drop=0 speed=5.34x    frame=12228 fps=128 q=32.0 size=   18934kB time=00:08:30.18 bitrate= 304.0kbits/s dup=1 drop=0 speed=5.36x    frame=12313 fps=129 q=32.0 size=   19039kB time=00:08:33.72 bitrate= 303.6kbits/s dup=1 drop=0 speed=5.36x    frame=12410 fps=129 q=32.0 size=   19144kB time=00:08:37.73 bitrate= 302.9kbits/s dup=1 drop=0 speed=5.37x    frame=12506 fps=129 q=32.0 size=   19288kB time=00:08:41.75 bitrate= 302.8kbits/s dup=1 drop=0 speed=5.39x    frame=12594 fps=129 q=32.0 size=   19393kB time=00:08:45.41 bitrate= 302.4kbits/s dup=1 drop=0 speed= 5.4x    frame=12670 fps=129 q=32.0 size=   19467kB time=00:08:48.61 bitrate= 301.7kbits/s dup=1 drop=0 speed= 5.4x    frame=12732 fps=129 q=32.0 size=   19594kB time=00:08:51.17 bitrate= 302.2kbits/s dup=1 drop=0 speed= 5.4x    frame=12809 fps=130 q=32.0 size=   19701kB time=00:08:54.42 bitrate= 302.0kbits/s dup=1 drop=0 speed= 5.4x    frame=12878 fps=130 q=32.0 size=   19798kB time=00:08:57.28 bitrate= 301.9kbits/s dup=1 drop=0 speed= 5.4x    frame=12958 fps=130 q=32.0 size=   19880kB time=00:09:00.60 bitrate= 301.3kbits/s dup=1 drop=0 speed=5.41x    frame=13023 fps=130 q=32.0 size=   19963kB time=00:09:03.33 bitrate= 301.0kbits/s dup=1 drop=0 speed=5.41x    frame=13094 fps=130 q=32.0 size=   20064kB time=00:09:06.28 bitrate= 300.9kbits/s dup=1 drop=0 speed=5.41x    frame=13178 fps=130 q=32.0 size=   20143kB time=00:09:09.78 bitrate= 300.1kbits/s dup=1 drop=0 speed=5.42x    frame=13245 fps=130 q=32.0 size=   20195kB time=00:09:12.55 bitrate= 299.4kbits/s dup=1 drop=0 speed=5.42x    frame=13308 fps=130 q=32.0 size=   20346kB time=00:09:15.20 bitrate= 300.2kbits/s dup=1 drop=0 speed=5.42x    frame=13395 fps=130 q=32.0 size=   20473kB time=00:09:18.82 bitrate= 300.1kbits/s dup=1 drop=0 speed=5.42x    frame=13460 fps=130 q=32.0 size=   20613kB time=00:09:21.55 bitrate= 300.7kbits/s dup=1 drop=0 speed=5.42x    frame=13510 fps=130 q=32.0 size=   20756kB time=00:09:23.64 bitrate= 301.7kbits/s dup=1 drop=0 speed=5.42x    frame=13550 fps=130 q=32.0 size=   20928kB time=00:09:25.31 bitrate= 303.3kbits/s dup=1 drop=0 speed=5.41x    frame=13619 fps=130 q=32.0 size=   21105kB time=00:09:28.21 bitrate= 304.3kbits/s dup=1 drop=0 speed=5.41x    frame=13680 fps=130 q=32.0 size=   21179kB time=00:09:30.73 bitrate= 304.0kbits/s dup=1 drop=0 speed=5.41x    frame=13731 fps=129 q=32.0 size=   21257kB time=00:09:32.86 bitrate= 304.0kbits/s dup=1 drop=0 speed= 5.4x    frame=13787 fps=129 q=32.0 size=   21328kB time=00:09:35.16 bitrate= 303.8kbits/s dup=1 drop=0 speed= 5.4x    frame=13838 fps=129 q=32.0 size=   21457kB time=00:09:37.30 bitrate= 304.5kbits/s dup=1 drop=0 speed=5.39x    frame=13905 fps=129 q=32.0 size=   21536kB time=00:09:40.11 bitrate= 304.1kbits/s dup=1 drop=0 speed=5.39x    frame=13950 fps=129 q=32.0 size=   21649kB time=00:09:41.99 bitrate= 304.7kbits/s dup=1 drop=0 speed=5.38x    frame=13984 fps=129 q=32.0 size=   21746kB time=00:09:43.40 bitrate= 305.3kbits/s dup=1 drop=0 speed=5.37x    frame=14037 fps=129 q=32.0 size=   21835kB time=00:09:45.62 bitrate= 305.4kbits/s dup=1 drop=0 speed=5.37x    frame=14115 fps=129 q=32.0 size=   21946kB time=00:09:48.86 bitrate= 305.3kbits/s dup=1 drop=0 speed=5.37x    frame=14191 fps=129 q=32.0 size=   22067kB time=00:09:52.02 bitrate= 305.3kbits/s dup=1 drop=0 speed=5.37x    frame=14252 fps=129 q=32.0 size=   22181kB time=00:09:54.58 bitrate= 305.6kbits/s dup=1 drop=0 speed=5.37x    frame=14295 fps=129 q=32.0 size=   22295kB time=00:09:56.37 bitrate= 306.2kbits/s dup=1 drop=0 speed=5.36x    frame=14370 fps=129 q=32.0 size=   22439kB time=00:09:59.53 bitrate= 306.6kbits/s dup=1 drop=0 speed=5.37x    frame=14475 fps=129 q=32.0 size=   22531kB time=00:10:03.88 bitrate= 305.6kbits/s dup=1 drop=0 speed=5.38x    frame=14551 fps=129 q=32.0 size=   22638kB time=00:10:07.04 bitrate= 305.5kbits/s dup=1 drop=0 speed=5.39x    frame=14600 fps=129 q=32.0 size=   22762kB time=00:10:09.08 bitrate= 306.1kbits/s dup=1 drop=0 speed=5.38x    frame=14675 fps=129 q=32.0 size=   22873kB time=00:10:12.24 bitrate= 306.0kbits/s dup=1 drop=0 speed=5.38x    frame=14743 fps=129 q=32.0 size=   22982kB time=00:10:15.06 bitrate= 306.1kbits/s dup=1 drop=0 speed=5.38x    frame=14830 fps=129 q=32.0 size=   23064kB time=00:10:18.68 bitrate= 305.4kbits/s dup=1 drop=0 speed=5.39x    frame=14894 fps=129 q=32.0 size=   23167kB time=00:10:21.33 bitrate= 305.4kbits/s dup=1 drop=0 speed=5.39x    frame=14980 fps=129 q=32.0 size=   23286kB time=00:10:24.96 bitrate= 305.2kbits/s dup=1 drop=0 speed= 5.4x    frame=15045 fps=129 q=32.0 size=   23368kB time=00:10:27.69 bitrate= 305.0kbits/s dup=1 drop=0 speed= 5.4x    frame=15089 fps=129 q=32.0 size=   23448kB time=00:10:29.48 bitrate= 305.1kbits/s dup=1 drop=0 speed=5.39x    frame=15134 fps=129 q=32.0 size=   23529kB time=00:10:31.36 bitrate= 305.3kbits/s dup=1 drop=0 speed=5.38x    frame=15193 fps=129 q=32.0 size=   23626kB time=00:10:33.83 bitrate= 305.4kbits/s dup=1 drop=0 speed=5.38x    frame=15246 fps=129 q=32.0 size=   23735kB time=00:10:36.05 bitrate= 305.7kbits/s dup=1 drop=0 speed=5.38x    frame=15320 fps=129 q=32.0 size=   23801kB time=00:10:39.12 bitrate= 305.1kbits/s dup=1 drop=0 speed=5.38x    frame=15386 fps=129 q=32.0 size=   23898kB time=00:10:41.89 bitrate= 305.0kbits/s dup=1 drop=0 speed=5.38x    frame=15465 fps=129 q=32.0 size=   24002kB time=00:10:45.18 bitrate= 304.8kbits/s dup=1 drop=0 speed=5.38x    frame=15570 fps=129 q=32.0 size=   24058kB time=00:10:49.57 bitrate= 303.4kbits/s dup=1 drop=0 speed= 5.4x    frame=15633 fps=129 q=32.0 size=   24150kB time=00:10:52.18 bitrate= 303.4kbits/s dup=1 drop=0 speed= 5.4x    frame=15700 fps=129 q=32.0 size=   24249kB time=00:10:54.99 bitrate= 303.3kbits/s dup=1 drop=0 speed= 5.4x    frame=15776 fps=129 q=32.0 size=   24319kB time=00:10:58.15 bitrate= 302.7kbits/s dup=1 drop=0 speed= 5.4x    frame=15850 fps=130 q=32.0 size=   24372kB time=00:11:01.22 bitrate= 301.9kbits/s dup=1 drop=0 speed= 5.4x    frame=15906 fps=129 q=32.0 size=   24465kB time=00:11:03.57 bitrate= 302.0kbits/s dup=1 drop=0 speed= 5.4x    frame=15965 fps=129 q=32.0 size=   24582kB time=00:11:06.00 bitrate= 302.4kbits/s dup=1 drop=0 speed= 5.4x    frame=16029 fps=129 q=32.0 size=   24673kB time=00:11:08.69 bitrate= 302.3kbits/s dup=1 drop=0 speed= 5.4x    frame=16088 fps=129 q=32.0 size=   24728kB time=00:11:11.16 bitrate= 301.8kbits/s dup=1 drop=0 speed=5.39x    frame=16149 fps=129 q=32.0 size=   24792kB time=00:11:13.68 bitrate= 301.5kbits/s dup=1 drop=0 speed=5.39x    frame=16220 fps=129 q=32.0 size=   24886kB time=00:11:16.67 bitrate= 301.3kbits/s dup=1 drop=0 speed=5.39x    frame=16300 fps=129 q=32.0 size=   25029kB time=00:11:20.00 bitrate= 301.5kbits/s dup=1 drop=0 speed= 5.4x    frame=16362 fps=129 q=32.0 size=   25126kB time=00:11:22.60 bitrate= 301.5kbits/s dup=1 drop=0 speed= 5.4x    frame=16431 fps=129 q=32.0 size=   25196kB time=00:11:25.46 bitrate= 301.1kbits/s dup=1 drop=0 speed= 5.4x    frame=16479 fps=129 q=32.0 size=   25326kB time=00:11:27.46 bitrate= 301.8kbits/s dup=1 drop=0 speed=5.39x    frame=16549 fps=129 q=32.0 size=   25444kB time=00:11:30.36 bitrate= 301.9kbits/s dup=1 drop=0 speed= 5.4x    frame=16621 fps=129 q=32.0 size=   25554kB time=00:11:33.39 bitrate= 301.9kbits/s dup=1 drop=0 speed= 5.4x    frame=16724 fps=130 q=32.0 size=   25637kB time=00:11:37.66 bitrate= 301.0kbits/s dup=1 drop=0 speed=5.41x    frame=16823 fps=130 q=32.0 size=   25739kB time=00:11:41.80 bitrate= 300.4kbits/s dup=1 drop=0 speed=5.42x    frame=16900 fps=130 q=32.0 size=   25849kB time=00:11:45.00 bitrate= 300.4kbits/s dup=1 drop=0 speed=5.42x    frame=16979 fps=130 q=32.0 size=   25931kB time=00:11:48.33 bitrate= 299.9kbits/s dup=1 drop=0 speed=5.43x    frame=17044 fps=130 q=32.0 size=   26027kB time=00:11:51.06 bitrate= 299.8kbits/s dup=1 drop=0 speed=5.43x    frame=17102 fps=130 q=32.0 size=   26095kB time=00:11:53.45 bitrate= 299.6kbits/s dup=1 drop=0 speed=5.42x    frame=17167 fps=130 q=32.0 size=   26164kB time=00:11:56.13 bitrate= 299.3kbits/s dup=1 drop=0 speed=5.42x    frame=17240 fps=130 q=32.0 size=   26264kB time=00:11:59.21 bitrate= 299.1kbits/s dup=1 drop=0 speed=5.43x    frame=17311 fps=130 q=32.0 size=   26373kB time=00:12:02.19 bitrate= 299.2kbits/s dup=1 drop=0 speed=5.43x    frame=17390 fps=130 q=32.0 size=   26460kB time=00:12:05.48 bitrate= 298.8kbits/s dup=1 drop=0 speed=5.43x    frame=17459 fps=130 q=32.0 size=   26599kB time=00:12:08.34 bitrate= 299.2kbits/s dup=1 drop=0 speed=5.43x    frame=17554 fps=130 q=32.0 size=   26718kB time=00:12:12.35 bitrate= 298.9kbits/s dup=1 drop=0 speed=5.44x    frame=17638 fps=131 q=32.0 size=   26812kB time=00:12:15.80 bitrate= 298.5kbits/s dup=1 drop=0 speed=5.45x    frame=17695 fps=131 q=32.0 size=   26909kB time=00:12:18.19 bitrate= 298.6kbits/s dup=1 drop=0 speed=5.45x    frame=17779 fps=131 q=32.0 size=   27023kB time=00:12:21.69 bitrate= 298.5kbits/s dup=1 drop=0 speed=5.45x    frame=17867 fps=131 q=32.0 size=   27142kB time=00:12:25.36 bitrate= 298.3kbits/s dup=1 drop=0 speed=5.46x    frame=17969 fps=131 q=32.0 size=   27224kB time=00:12:29.59 bitrate= 297.5kbits/s dup=1 drop=0 speed=5.47x    frame=18057 fps=131 q=32.0 size=   27336kB time=00:12:33.30 bitrate= 297.3kbits/s dup=1 drop=0 speed=5.47x    frame=18123 fps=131 q=32.0 size=   27418kB time=00:12:36.03 bitrate= 297.1kbits/s dup=1 drop=0 speed=5.47x    frame=18194 fps=131 q=32.0 size=   27544kB time=00:12:39.01 bitrate= 297.3kbits/s dup=1 drop=0 speed=5.48x    frame=18269 fps=131 q=32.0 size=   27603kB time=00:12:42.13 bitrate= 296.7kbits/s dup=1 drop=0 speed=5.48x    frame=18346 fps=131 q=32.0 size=   27680kB time=00:12:45.33 bitrate= 296.3kbits/s dup=1 drop=0 speed=5.48x    frame=18424 fps=131 q=32.0 size=   27777kB time=00:12:48.61 bitrate= 296.1kbits/s dup=1 drop=0 speed=5.48x    frame=18503 fps=132 q=32.0 size=   27884kB time=00:12:51.90 bitrate= 295.9kbits/s dup=1 drop=0 speed=5.49x    frame=18576 fps=132 q=32.0 size=   27935kB time=00:12:54.93 bitrate= 295.3kbits/s dup=1 drop=0 speed=5.49x    frame=18637 fps=132 q=32.0 size=   28025kB time=00:12:57.49 bitrate= 295.3kbits/s dup=1 drop=0 speed=5.49x    frame=18694 fps=131 q=32.0 size=   28121kB time=00:12:59.84 bitrate= 295.4kbits/s dup=1 drop=0 speed=5.48x    frame=18780 fps=132 q=32.0 size=   28223kB time=00:13:03.42 bitrate= 295.1kbits/s dup=1 drop=0 speed=5.49x    frame=18846 fps=132 q=32.0 size=   28300kB time=00:13:06.19 bitrate= 294.9kbits/s dup=1 drop=0 speed=5.49x    frame=18911 fps=132 q=32.0 size=   28368kB time=00:13:08.88 bitrate= 294.6kbits/s dup=1 drop=0 speed=5.49x    frame=18987 fps=132 q=32.0 size=   28483kB time=00:13:12.08 bitrate= 294.6kbits/s dup=1 drop=0 speed=5.49x    frame=19062 fps=132 q=32.0 size=   28573kB time=00:13:15.20 bitrate= 294.4kbits/s dup=1 drop=0 speed=5.49x    frame=19117 fps=132 q=32.0 size=   28690kB time=00:13:17.50 bitrate= 294.7kbits/s dup=1 drop=0 speed=5.49x    frame=19193 fps=132 q=32.0 size=   28797kB time=00:13:20.66 bitrate= 294.6kbits/s dup=1 drop=0 speed=5.49x    frame=19272 fps=132 q=32.0 size=   28919kB time=00:13:23.94 bitrate= 294.7kbits/s dup=1 drop=0 speed= 5.5x    frame=19329 fps=132 q=32.0 size=   29003kB time=00:13:26.33 bitrate= 294.7kbits/s dup=1 drop=0 speed=5.49x    frame=19370 fps=131 q=32.0 size=   29136kB time=00:13:28.04 bitrate= 295.4kbits/s dup=1 drop=0 speed=5.49x    frame=19441 fps=132 q=32.0 size=   29229kB time=00:13:30.98 bitrate= 295.3kbits/s dup=1 drop=0 speed=5.49x    frame=19505 fps=132 q=32.0 size=   29326kB time=00:13:33.67 bitrate= 295.2kbits/s dup=1 drop=0 speed=5.49x    frame=19560 fps=131 q=32.0 size=   29403kB time=00:13:35.97 bitrate= 295.2kbits/s dup=1 drop=0 speed=5.48x    frame=19595 fps=131 q=32.0 size=   29503kB time=00:13:37.43 bitrate= 295.7kbits/s dup=1 drop=0 speed=5.47x    frame=19630 fps=131 q=32.0 size=   29608kB time=00:13:38.88 bitrate= 296.2kbits/s dup=1 drop=0 speed=5.46x    frame=19693 fps=131 q=32.0 size=   29676kB time=00:13:41.52 bitrate= 295.9kbits/s dup=1 drop=0 speed=5.46x    frame=19768 fps=131 q=32.0 size=   29755kB time=00:13:44.64 bitrate= 295.6kbits/s dup=1 drop=0 speed=5.47x    frame=19813 fps=131 q=32.0 size=   29842kB time=00:13:46.51 bitrate= 295.8kbits/s dup=1 drop=0 speed=5.46x    frame=19876 fps=131 q=32.0 size=   29939kB time=00:13:49.16 bitrate= 295.8kbits/s dup=1 drop=0 speed=5.46x    frame=19945 fps=131 q=32.0 size=   29982kB time=00:13:52.02 bitrate= 295.2kbits/s dup=1 drop=0 speed=5.46x    frame=20000 fps=131 q=32.0 size=   30068kB time=00:13:54.32 bitrate= 295.2kbits/s dup=1 drop=0 speed=5.46x    frame=20035 fps=131 q=32.0 size=   30138kB time=00:13:55.77 bitrate= 295.4kbits/s dup=1 drop=0 speed=5.45x    frame=20081 fps=130 q=32.0 size=   30241kB time=00:13:57.69 bitrate= 295.7kbits/s dup=1 drop=0 speed=5.44x    frame=20136 fps=130 q=32.0 size=   30326kB time=00:14:00.00 bitrate= 295.7kbits/s dup=1 drop=0 speed=5.44x    frame=20181 fps=130 q=32.0 size=   30435kB time=00:14:01.87 bitrate= 296.2kbits/s dup=1 drop=0 speed=5.43x    frame=20228 fps=130 q=32.0 size=   30529kB time=00:14:03.88 bitrate= 296.4kbits/s dup=1 drop=0 speed=5.43x    frame=20279 fps=130 q=32.0 size=   30621kB time=00:14:05.93 bitrate= 296.5kbits/s dup=1 drop=0 speed=5.42x    frame=20349 fps=130 q=32.0 size=   30737kB time=00:14:08.87 bitrate= 296.6kbits/s dup=1 drop=0 speed=5.43x    frame=20424 fps=130 q=32.0 size=   30810kB time=00:14:11.99 bitrate= 296.2kbits/s dup=1 drop=0 speed=5.43x    frame=20492 fps=130 q=32.0 size=   30902kB time=00:14:14.84 bitrate= 296.1kbits/s dup=1 drop=0 speed=5.43x    frame=20560 fps=130 q=32.0 size=   31022kB time=00:14:17.70 bitrate= 296.3kbits/s dup=1 drop=0 speed=5.43x    frame=20634 fps=130 q=32.0 size=   31093kB time=00:14:20.77 bitrate= 295.9kbits/s dup=1 drop=0 speed=5.43x    frame=20704 fps=130 q=32.0 size=   31227kB time=00:14:23.68 bitrate= 296.2kbits/s dup=1 drop=0 speed=5.43x    frame=20746 fps=130 q=32.0 size=   31347kB time=00:14:25.43 bitrate= 296.7kbits/s dup=1 drop=0 speed=5.43x    frame=20806 fps=130 q=32.0 size=   31442kB time=00:14:27.94 bitrate= 296.8kbits/s dup=1 drop=0 speed=5.43x    frame=20861 fps=130 q=32.0 size=   31542kB time=00:14:30.25 bitrate= 296.9kbits/s dup=1 drop=0 speed=5.42x    frame=20942 fps=130 q=32.0 size=   31622kB time=00:14:33.62 bitrate= 296.5kbits/s dup=1 drop=0 speed=5.43x    frame=21002 fps=130 q=32.0 size=   31706kB time=00:14:36.13 bitrate= 296.5kbits/s dup=1 drop=0 speed=5.42x    frame=21040 fps=130 q=32.0 size=   31785kB time=00:14:37.71 bitrate= 296.7kbits/s dup=1 drop=0 speed=5.42x    frame=21087 fps=130 q=32.0 size=   31886kB time=00:14:39.68 bitrate= 296.9kbits/s dup=1 drop=0 speed=5.41x    frame=21155 fps=130 q=32.0 size=   32000kB time=00:14:42.49 bitrate= 297.1kbits/s dup=1 drop=0 speed=5.41x    frame=21228 fps=130 q=32.0 size=   32094kB time=00:14:45.56 bitrate= 296.9kbits/s dup=1 drop=0 speed=5.42x    frame=21272 fps=130 q=32.0 size=   32238kB time=00:14:47.40 bitrate= 297.6kbits/s dup=1 drop=0 speed=5.41x    frame=21327 fps=130 q=32.0 size=   32347kB time=00:14:49.66 bitrate= 297.8kbits/s dup=1 drop=0 speed=5.41x    frame=21403 fps=130 q=32.0 size=   32448kB time=00:14:52.86 bitrate= 297.7kbits/s dup=1 drop=0 speed=5.41x    frame=21469 fps=130 q=32.0 size=   32574kB time=00:14:55.59 bitrate= 298.0kbits/s dup=1 drop=0 speed=5.41x    frame=21577 fps=130 q=32.0 size=   32664kB time=00:15:00.07 bitrate= 297.3kbits/s dup=1 drop=0 speed=5.42x    frame=21632 fps=130 q=32.0 size=   32749kB time=00:15:02.37 bitrate= 297.3kbits/s dup=1 drop=0 speed=5.42x    frame=21688 fps=130 q=32.0 size=   32850kB time=00:15:04.72 bitrate= 297.4kbits/s dup=1 drop=0 speed=5.41x    frame=21747 fps=130 q=32.0 size=   32946kB time=00:15:07.20 bitrate= 297.5kbits/s dup=1 drop=0 speed=5.41x    frame=21806 fps=130 q=32.0 size=   33026kB time=00:15:09.67 bitrate= 297.4kbits/s dup=1 drop=0 speed=5.41x    frame=21884 fps=130 q=32.0 size=   33110kB time=00:15:12.91 bitrate= 297.1kbits/s dup=1 drop=0 speed=5.41x    frame=21967 fps=130 q=32.0 size=   33206kB time=00:15:16.37 bitrate= 296.8kbits/s dup=1 drop=0 speed=5.42x    frame=22040 fps=130 q=32.0 size=   33299kB time=00:15:19.40 bitrate= 296.7kbits/s dup=1 drop=0 speed=5.42x    frame=22115 fps=130 q=32.0 size=   33381kB time=00:15:22.51 bitrate= 296.4kbits/s dup=1 drop=0 speed=5.42x    frame=22213 fps=130 q=32.0 size=   33475kB time=00:15:26.61 bitrate= 295.9kbits/s dup=1 drop=0 speed=5.43x    frame=22305 fps=130 q=32.0 size=   33556kB time=00:15:30.45 bitrate= 295.4kbits/s dup=1 drop=0 speed=5.43x    frame=22382 fps=130 q=32.0 size=   33641kB time=00:15:33.65 bitrate= 295.2kbits/s dup=1 drop=0 speed=5.44x    frame=22462 fps=130 q=32.0 size=   33695kB time=00:15:37.02 bitrate= 294.6kbits/s dup=1 drop=0 speed=5.44x    frame=22528 fps=130 q=32.0 size=   33816kB time=00:15:39.75 bitrate= 294.8kbits/s dup=1 drop=0 speed=5.44x    frame=22599 fps=130 q=32.0 size=   33892kB time=00:15:42.69 bitrate= 294.5kbits/s dup=1 drop=0 speed=5.44x    frame=22676 fps=130 q=32.0 size=   33966kB time=00:15:45.94 bitrate= 294.1kbits/s dup=1 drop=0 speed=5.44x    frame=22740 fps=130 q=32.0 size=   34061kB time=00:15:48.58 bitrate= 294.2kbits/s dup=1 drop=0 speed=5.44x    frame=22823 fps=131 q=32.0 size=   34172kB time=00:15:52.08 bitrate= 294.0kbits/s dup=1 drop=0 speed=5.45x    frame=22935 fps=131 q=32.0 size=   34273kB time=00:15:56.77 bitrate= 293.4kbits/s dup=1 drop=0 speed=5.46x    frame=23049 fps=131 q=32.0 size=   34342kB time=00:16:01.51 bitrate= 292.6kbits/s dup=1 drop=0 speed=5.47x    frame=23146 fps=131 q=32.0 size=   34441kB time=00:16:05.52 bitrate= 292.2kbits/s dup=1 drop=0 speed=5.48x    frame=23251 fps=132 q=32.0 size=   34557kB time=00:16:09.92 bitrate= 291.9kbits/s dup=1 drop=0 speed=5.49x    frame=23336 fps=132 q=32.0 size=   34625kB time=00:16:13.46 bitrate= 291.4kbits/s dup=1 drop=0 speed=5.49x    frame=23395 fps=132 q=32.0 size=   34824kB time=00:16:15.93 bitrate= 292.3kbits/s dup=1 drop=0 speed=5.49x    frame=23482 fps=132 q=32.0 size=   34901kB time=00:16:19.56 bitrate= 291.9kbits/s dup=1 drop=0 speed=5.49x    frame=23567 fps=132 q=32.0 size=   34968kB time=00:16:23.06 bitrate= 291.4kbits/s dup=1 drop=0 speed= 5.5x    frame=23660 fps=132 q=32.0 size=   35076kB time=00:16:26.98 bitrate= 291.1kbits/s dup=1 drop=0 speed= 5.5x    frame=23738 fps=132 q=32.0 size=   35152kB time=00:16:30.23 bitrate= 290.8kbits/s dup=1 drop=0 speed=5.51x    frame=23824 fps=132 q=32.0 size=   35244kB time=00:16:33.81 bitrate= 290.5kbits/s dup=1 drop=0 speed=5.51x    frame=23901 fps=132 q=32.0 size=   35334kB time=00:16:37.01 bitrate= 290.3kbits/s dup=1 drop=0 speed=5.51x    frame=23983 fps=132 q=32.0 size=   35444kB time=00:16:40.42 bitrate= 290.2kbits/s dup=1 drop=0 speed=5.52x    frame=24067 fps=132 q=32.0 size=   35507kB time=00:16:43.92 bitrate= 289.7kbits/s dup=1 drop=0 speed=5.52x    frame=24135 fps=132 q=32.0 size=   35580kB time=00:16:46.78 bitrate= 289.5kbits/s dup=1 drop=0 speed=5.52x    frame=24172 fps=132 q=32.0 size=   35654kB time=00:16:48.32 bitrate= 289.7kbits/s dup=1 drop=0 speed=5.51x    frame=24218 fps=132 q=32.0 size=   35759kB time=00:16:50.28 bitrate= 290.0kbits/s dup=1 drop=0 speed=5.51x    frame=24289 fps=132 q=32.0 size=   35812kB time=00:16:53.22 bitrate= 289.5kbits/s dup=1 drop=0 speed=5.51x    frame=24350 fps=132 q=32.0 size=   35875kB time=00:16:55.74 bitrate= 289.3kbits/s dup=1 drop=0 speed=5.51x    frame=24405 fps=132 q=32.0 size=   35956kB time=00:16:58.04 bitrate= 289.3kbits/s dup=1 drop=0 speed=5.51x    frame=24458 fps=132 q=32.0 size=   36032kB time=00:17:00.26 bitrate= 289.3kbits/s dup=1 drop=0 speed= 5.5x    frame=24533 fps=132 q=32.0 size=   36124kB time=00:17:03.38 bitrate= 289.2kbits/s dup=1 drop=0 speed=5.51x    frame=24593 fps=132 q=32.0 size=   36192kB time=00:17:05.89 bitrate= 289.0kbits/s dup=1 drop=0 speed= 5.5x    frame=24633 fps=132 q=32.0 size=   36254kB time=00:17:07.56 bitrate= 289.0kbits/s dup=1 drop=0 speed= 5.5x    frame=24705 fps=132 q=32.0 size=   36364kB time=00:17:10.55 bitrate= 289.1kbits/s dup=1 drop=0 speed= 5.5x    frame=24758 fps=132 q=32.0 size=   36442kB time=00:17:12.76 bitrate= 289.1kbits/s dup=1 drop=0 speed=5.49x    frame=24812 fps=132 q=32.0 size=   36518kB time=00:17:15.03 bitrate= 289.0kbits/s dup=1 drop=0 speed=5.49x    frame=24849 fps=131 q=32.0 size=   36593kB time=00:17:16.56 bitrate= 289.2kbits/s dup=1 drop=0 speed=5.48x    frame=24903 fps=131 q=32.0 size=   36700kB time=00:17:18.82 bitrate= 289.4kbits/s dup=1 drop=0 speed=5.48x    frame=24968 fps=131 q=32.0 size=   36784kB time=00:17:21.51 bitrate= 289.3kbits/s dup=1 drop=0 speed=5.48x    frame=25049 fps=131 q=32.0 size=   36885kB time=00:17:24.92 bitrate= 289.2kbits/s dup=1 drop=0 speed=5.48x    frame=25112 fps=131 q=32.0 size=   36995kB time=00:17:27.53 bitrate= 289.3kbits/s dup=1 drop=0 speed=5.48x    frame=25196 fps=132 q=32.0 size=   37082kB time=00:17:31.03 bitrate= 289.0kbits/s dup=1 drop=0 speed=5.49x    frame=25259 fps=131 q=32.0 size=   37191kB time=00:17:33.67 bitrate= 289.1kbits/s dup=1 drop=0 speed=5.48x    frame=25319 fps=131 q=32.0 size=   37268kB time=00:17:36.15 bitrate= 289.1kbits/s dup=1 drop=0 speed=5.48x    frame=25379 fps=131 q=32.0 size=   37342kB time=00:17:38.66 bitrate= 288.9kbits/s dup=1 drop=0 speed=5.48x    frame=25440 fps=131 q=32.0 size=   37414kB time=00:17:41.18 bitrate= 288.8kbits/s dup=1 drop=0 speed=5.48x    frame=25515 fps=131 q=32.0 size=   37510kB time=00:17:44.34 bitrate= 288.7kbits/s dup=1 drop=0 speed=5.48x    frame=25620 fps=132 q=32.0 size=   37580kB time=00:17:48.73 bitrate= 288.1kbits/s dup=1 drop=0 speed=5.49x    frame=25719 fps=132 q=32.0 size=   37670kB time=00:17:52.83 bitrate= 287.6kbits/s dup=1 drop=0 speed= 5.5x    frame=25808 fps=132 q=32.0 size=   37756kB time=00:17:56.58 bitrate= 287.3kbits/s dup=1 drop=0 speed= 5.5x    frame=25881 fps=132 q=32.0 size=   37825kB time=00:17:59.65 bitrate= 287.0kbits/s dup=1 drop=0 speed= 5.5x    frame=25953 fps=132 q=32.0 size=   37885kB time=00:18:02.60 bitrate= 286.7kbits/s dup=1 drop=0 speed= 5.5x    frame=26030 fps=132 q=32.0 size=   37997kB time=00:18:05.84 bitrate= 286.7kbits/s dup=1 drop=0 speed=5.51x    frame=26110 fps=132 q=32.0 size=   38098kB time=00:18:09.17 bitrate= 286.5kbits/s dup=1 drop=0 speed=5.51x    frame=26205 fps=132 q=32.0 size=   38178kB time=00:18:13.14 bitrate= 286.1kbits/s dup=1 drop=0 speed=5.51x    frame=26265 fps=132 q=32.0 size=   38290kB time=00:18:15.61 bitrate= 286.3kbits/s dup=1 drop=0 speed=5.51x    frame=26345 fps=132 q=32.0 size=   38399kB time=00:18:18.94 bitrate= 286.2kbits/s dup=1 drop=0 speed=5.52x    frame=26402 fps=132 q=32.0 size=   38503kB time=00:18:21.33 bitrate= 286.4kbits/s dup=1 drop=0 speed=5.51x    frame=26492 fps=132 q=32.0 size=   38593kB time=00:18:25.08 bitrate= 286.1kbits/s dup=1 drop=0 speed=5.52x    frame=26594 fps=132 q=32.0 size=   38698kB time=00:18:29.35 bitrate= 285.8kbits/s dup=1 drop=0 speed=5.53x    frame=26652 fps=132 q=32.0 size=   38796kB time=00:18:31.78 bitrate= 285.9kbits/s dup=1 drop=0 speed=5.52x    frame=26724 fps=132 q=32.0 size=   38900kB time=00:18:34.77 bitrate= 285.9kbits/s dup=1 drop=0 speed=5.52x    frame=26789 fps=132 q=32.0 size=   38977kB time=00:18:37.50 bitrate= 285.7kbits/s dup=1 drop=0 speed=5.52x    frame=26836 fps=132 q=32.0 size=   39056kB time=00:18:39.46 bitrate= 285.8kbits/s dup=1 drop=0 speed=5.52x    frame=26903 fps=132 q=32.0 size=   39149kB time=00:18:42.24 bitrate= 285.8kbits/s dup=1 drop=0 speed=5.52x    frame=26972 fps=132 q=32.0 size=   39218kB time=00:18:45.09 bitrate= 285.5kbits/s dup=1 drop=0 speed=5.52x    frame=27019 fps=132 q=32.0 size=   39301kB time=00:18:47.10 bitrate= 285.6kbits/s dup=1 drop=0 speed=5.52x    frame=27092 fps=132 q=32.0 size=   39405kB time=00:18:50.09 bitrate= 285.6kbits/s dup=1 drop=0 speed=5.52x    frame=27174 fps=132 q=32.0 size=   39482kB time=00:18:53.54 bitrate= 285.3kbits/s dup=1 drop=0 speed=5.52x    frame=27239 fps=132 q=32.0 size=   39574kB time=00:18:56.23 bitrate= 285.3kbits/s dup=1 drop=0 speed=5.52x    frame=27310 fps=132 q=32.0 size=   39669kB time=00:18:59.22 bitrate= 285.3kbits/s dup=1 drop=0 speed=5.52x    frame=27389 fps=132 q=32.0 size=   39738kB time=00:19:02.50 bitrate= 284.9kbits/s dup=1 drop=0 speed=5.52x    frame=27463 fps=132 q=32.0 size=   39791kB time=00:19:05.57 bitrate= 284.5kbits/s dup=1 drop=0 speed=5.52x    frame=27544 fps=132 q=32.0 size=   39872kB time=00:19:08.99 bitrate= 284.3kbits/s dup=1 drop=0 speed=5.52x    frame=27598 fps=132 q=32.0 size=   39974kB time=00:19:11.21 bitrate= 284.5kbits/s dup=1 drop=0 speed=5.52x    frame=27653 fps=132 q=32.0 size=   40073kB time=00:19:13.51 bitrate= 284.6kbits/s dup=1 drop=0 speed=5.52x    frame=27729 fps=132 q=32.0 size=   40154kB time=00:19:16.67 bitrate= 284.4kbits/s dup=1 drop=0 speed=5.52x    frame=27803 fps=132 q=32.0 size=   40217kB time=00:19:19.78 bitrate= 284.1kbits/s dup=1 drop=0 speed=5.52x    frame=27883 fps=132 q=32.0 size=   40289kB time=00:19:23.11 bitrate= 283.8kbits/s dup=1 drop=0 speed=5.53x    frame=27974 fps=133 q=32.0 size=   40386kB time=00:19:26.91 bitrate= 283.5kbits/s dup=1 drop=0 speed=5.53x    frame=28053 fps=133 q=32.0 size=   40482kB time=00:19:30.19 bitrate= 283.4kbits/s dup=1 drop=0 speed=5.53x    frame=28136 fps=133 q=32.0 size=   40579kB time=00:19:33.65 bitrate= 283.2kbits/s dup=1 drop=0 speed=5.54x    frame=28220 fps=133 q=32.0 size=   40641kB time=00:19:37.19 bitrate= 282.8kbits/s dup=1 drop=0 speed=5.54x    frame=28285 fps=133 q=32.0 size=   40736kB time=00:19:39.88 bitrate= 282.8kbits/s dup=1 drop=0 speed=5.54x    frame=28340 fps=133 q=32.0 size=   40842kB time=00:19:42.14 bitrate= 283.0kbits/s dup=1 drop=0 speed=5.54x    frame=28446 fps=133 q=32.0 size=   40954kB time=00:19:46.58 bitrate= 282.7kbits/s dup=1 drop=0 speed=5.54x    frame=28542 fps=133 q=32.0 size=   41046kB time=00:19:50.59 bitrate= 282.4kbits/s dup=1 drop=0 speed=5.55x    frame=28632 fps=133 q=32.0 size=   41136kB time=00:19:54.34 bitrate= 282.1kbits/s dup=1 drop=0 speed=5.55x    frame=28700 fps=133 q=32.0 size=   41245kB time=00:19:57.20 bitrate= 282.2kbits/s dup=1 drop=0 speed=5.55x    frame=28753 fps=133 q=32.0 size=   41336kB time=00:19:59.38 bitrate= 282.3kbits/s dup=1 drop=0 speed=5.55x    frame=28828 fps=133 q=32.0 size=   41504kB time=00:20:02.49 bitrate= 282.7kbits/s dup=1 drop=0 speed=5.55x    frame=28914 fps=133 q=32.0 size=   41586kB time=00:20:06.12 bitrate= 282.5kbits/s dup=1 drop=0 speed=5.55x    frame=28992 fps=133 q=32.0 size=   41689kB time=00:20:09.36 bitrate= 282.4kbits/s dup=1 drop=0 speed=5.56x    frame=29053 fps=133 q=32.0 size=   41768kB time=00:20:11.88 bitrate= 282.3kbits/s dup=1 drop=0 speed=5.56x    frame=29106 fps=133 q=32.0 size=   41845kB time=00:20:14.10 bitrate= 282.3kbits/s dup=1 drop=0 speed=5.55x    frame=29162 fps=133 q=32.0 size=   41972kB time=00:20:16.44 bitrate= 282.7kbits/s dup=1 drop=0 speed=5.55x    frame=29208 fps=133 q=32.0 size=   42071kB time=00:20:18.36 bitrate= 282.9kbits/s dup=1 drop=0 speed=5.55x    frame=29259 fps=133 q=32.0 size=   42141kB time=00:20:20.50 bitrate= 282.9kbits/s dup=1 drop=0 speed=5.54x    frame=29310 fps=133 q=32.0 size=   42211kB time=00:20:22.63 bitrate= 282.8kbits/s dup=1 drop=0 speed=5.54x    frame=29381 fps=133 q=32.0 size=   42320kB time=00:20:25.62 bitrate= 282.9kbits/s dup=1 drop=0 speed=5.54x    frame=29436 fps=133 q=32.0 size=   42391kB time=00:20:27.88 bitrate= 282.8kbits/s dup=1 drop=0 speed=5.54x    frame=29495 fps=133 q=32.0 size=   42477kB time=00:20:30.31 bitrate= 282.8kbits/s dup=1 drop=0 speed=5.53x    frame=29560 fps=133 q=32.0 size=   42569kB time=00:20:33.04 bitrate= 282.8kbits/s dup=1 drop=0 speed=5.53x    frame=29623 fps=133 q=32.0 size=   42656kB time=00:20:35.69 bitrate= 282.8kbits/s dup=1 drop=0 speed=5.53x    frame=29680 fps=133 q=32.0 size=   42732kB time=00:20:38.08 bitrate= 282.7kbits/s dup=1 drop=0 speed=5.53x    frame=29762 fps=133 q=32.0 size=   42838kB time=00:20:41.45 bitrate= 282.7kbits/s dup=1 drop=0 speed=5.53x    frame=29854 fps=133 q=32.0 size=   42918kB time=00:20:45.29 bitrate= 282.3kbits/s dup=1 drop=0 speed=5.54x    frame=29926 fps=133 q=32.0 size=   42985kB time=00:20:48.32 bitrate= 282.1kbits/s dup=1 drop=0 speed=5.54x    frame=29996 fps=133 q=32.0 size=   43049kB time=00:20:51.22 bitrate= 281.8kbits/s dup=1 drop=0 speed=5.54x    frame=30056 fps=133 q=32.0 size=   43101kB time=00:20:53.73 bitrate= 281.6kbits/s dup=1 drop=0 speed=5.54x    frame=30111 fps=133 q=32.0 size=   43183kB time=00:20:56.04 bitrate= 281.6kbits/s dup=1 drop=0 speed=5.54x    frame=30193 fps=133 q=32.0 size=   43262kB time=00:20:59.45 bitrate= 281.4kbits/s dup=1 drop=0 speed=5.54x    frame=30293 fps=133 q=32.0 size=   43358kB time=00:21:03.63 bitrate= 281.1kbits/s dup=1 drop=0 speed=5.55x    frame=30364 fps=133 q=32.0 size=   43450kB time=00:21:06.58 bitrate= 281.0kbits/s dup=1 drop=0 speed=5.55x    frame=30441 fps=133 q=32.0 size=   43523kB time=00:21:09.78 bitrate= 280.8kbits/s dup=1 drop=0 speed=5.55x    frame=30540 fps=133 q=32.0 size=   43613kB time=00:21:13.92 bitrate= 280.5kbits/s dup=1 drop=0 speed=5.55x    frame=30644 fps=133 q=32.0 size=   43682kB time=00:21:18.27 bitrate= 279.9kbits/s dup=1 drop=0 speed=5.56x    frame=30771 fps=134 q=32.0 size=   43778kB time=00:21:23.56 bitrate= 279.4kbits/s dup=1 drop=0 speed=5.57x    frame=30884 fps=134 q=32.0 size=   43869kB time=00:21:28.25 bitrate= 279.0kbits/s dup=1 drop=0 speed=5.58x    frame=30976 fps=134 q=32.0 size=   43936kB time=00:21:32.09 bitrate= 278.6kbits/s dup=1 drop=0 speed=5.58x    frame=31055 fps=134 q=32.0 size=   44039kB time=00:21:35.38 bitrate= 278.5kbits/s dup=1 drop=0 speed=5.59x    frame=31154 fps=134 q=32.0 size=   44136kB time=00:21:39.56 bitrate= 278.2kbits/s dup=1 drop=0 speed=5.59x    frame=31240 fps=134 q=32.0 size=   44203kB time=00:21:43.14 bitrate= 277.9kbits/s dup=1 drop=0 speed=5.59x    frame=31303 fps=134 q=32.0 size=   44295kB time=00:21:45.75 bitrate= 277.9kbits/s dup=1 drop=0 speed=5.59x    frame=31351 fps=134 q=32.0 size=   44362kB time=00:21:47.75 bitrate= 277.9kbits/s dup=1 drop=0 speed=5.59x    frame=31402 fps=134 q=32.0 size=   44431kB time=00:21:49.88 bitrate= 277.9kbits/s dup=1 drop=0 speed=5.59x    frame=31453 fps=134 q=32.0 size=   44499kB time=00:21:52.02 bitrate= 277.8kbits/s dup=1 drop=0 speed=5.58x    frame=31521 fps=134 q=32.0 size=   44613kB time=00:21:54.83 bitrate= 278.0kbits/s dup=1 drop=0 speed=5.58x    frame=31565 fps=134 q=32.0 size=   44712kB time=00:21:56.67 bitrate= 278.2kbits/s dup=1 drop=0 speed=5.58x    frame=31607 fps=134 q=32.0 size=   44807kB time=00:21:58.42 bitrate= 278.4kbits/s dup=1 drop=0 speed=5.58x    frame=31641 fps=134 q=32.0 size=   44895kB time=00:21:59.87 bitrate= 278.6kbits/s dup=1 drop=0 speed=5.57x    frame=31682 fps=133 q=32.0 size=   44989kB time=00:22:01.57 bitrate= 278.9kbits/s dup=1 drop=0 speed=5.56x    frame=31721 fps=133 q=32.0 size=   45082kB time=00:22:03.20 bitrate= 279.1kbits/s dup=1 drop=0 speed=5.56x    frame=31764 fps=133 q=32.0 size=   45195kB time=00:22:04.99 bitrate= 279.4kbits/s dup=1 drop=0 speed=5.56x    frame=31804 fps=133 q=32.0 size=   45271kB time=00:22:06.65 bitrate= 279.5kbits/s dup=1 drop=0 speed=5.55x    frame=31849 fps=133 q=32.0 size=   45350kB time=00:22:08.53 bitrate= 279.6kbits/s dup=1 drop=0 speed=5.55x    frame=31907 fps=133 q=32.0 size=   45443kB time=00:22:10.92 bitrate= 279.7kbits/s dup=1 drop=0 speed=5.54x    frame=31944 fps=133 q=32.0 size=   45520kB time=00:22:12.45 bitrate= 279.9kbits/s dup=1 drop=0 speed=5.54x    frame=31980 fps=133 q=32.0 size=   45603kB time=00:22:13.99 bitrate= 280.0kbits/s dup=1 drop=0 speed=5.53x    frame=32021 fps=133 q=32.0 size=   45691kB time=00:22:15.70 bitrate= 280.2kbits/s dup=1 drop=0 speed=5.53x    frame=32071 fps=132 q=32.0 size=   45782kB time=00:22:17.79 bitrate= 280.3kbits/s dup=1 drop=0 speed=5.53x    frame=32137 fps=132 q=32.0 size=   45913kB time=00:22:20.52 bitrate= 280.6kbits/s dup=1 drop=0 speed=5.53x    frame=32192 fps=132 q=32.0 size=   45993kB time=00:22:22.82 bitrate= 280.6kbits/s dup=1 drop=0 speed=5.52x    frame=32248 fps=132 q=32.0 size=   46081kB time=00:22:25.17 bitrate= 280.6kbits/s dup=1 drop=0 speed=5.52x    frame=32301 fps=132 q=32.0 size=   46196kB time=00:22:27.39 bitrate= 280.9kbits/s dup=1 drop=0 speed=5.52x    frame=32351 fps=132 q=32.0 size=   46307kB time=00:22:29.48 bitrate= 281.1kbits/s dup=1 drop=0 speed=5.51x    frame=32411 fps=132 q=32.0 size=   46404kB time=00:22:31.95 bitrate= 281.2kbits/s dup=1 drop=0 speed=5.51x    frame=32460 fps=132 q=32.0 size=   46488kB time=00:22:34.00 bitrate= 281.3kbits/s dup=1 drop=0 speed=5.51x    frame=32543 fps=132 q=32.0 size=   46612kB time=00:22:37.46 bitrate= 281.3kbits/s dup=1 drop=0 speed=5.51x    frame=32597 fps=132 q=32.0 size=   46713kB time=00:22:39.72 bitrate= 281.4kbits/s dup=1 drop=0 speed=5.51x    frame=32639 fps=132 q=32.0 size=   46815kB time=00:22:41.47 bitrate= 281.7kbits/s dup=1 drop=0 speed=5.51x    frame=32700 fps=132 q=32.0 size=   46911kB time=00:22:44.03 bitrate= 281.7kbits/s dup=1 drop=0 speed=5.51x    frame=32771 fps=132 q=32.0 size=   47046kB time=00:22:46.97 bitrate= 281.9kbits/s dup=1 drop=0 speed=5.51x    frame=32829 fps=132 q=32.0 size=   47167kB time=00:22:49.40 bitrate= 282.2kbits/s dup=1 drop=0 speed= 5.5x    frame=32886 fps=132 q=32.0 size=   47291kB time=00:22:51.75 bitrate= 282.4kbits/s dup=1 drop=0 speed= 5.5x    frame=32935 fps=132 q=32.0 size=   47382kB time=00:22:53.84 bitrate= 282.5kbits/s dup=1 drop=0 speed= 5.5x    frame=33001 fps=132 q=32.0 size=   47472kB time=00:22:56.57 bitrate= 282.5kbits/s dup=1 drop=0 speed= 5.5x    frame=33052 fps=132 q=32.0 size=   47545kB time=00:22:58.71 bitrate= 282.5kbits/s dup=1 drop=0 speed= 5.5x    frame=33118 fps=132 q=32.0 size=   47653kB time=00:23:01.44 bitrate= 282.6kbits/s dup=1 drop=0 speed= 5.5x    frame=33174 fps=132 q=32.0 size=   47728kB time=00:23:03.78 bitrate= 282.6kbits/s dup=1 drop=0 speed= 5.5x    frame=33231 fps=132 q=32.0 size=   47805kB time=00:23:06.17 bitrate= 282.5kbits/s dup=1 drop=0 speed=5.49x    frame=33277 fps=132 q=32.0 size=   47885kB time=00:23:08.09 bitrate= 282.6kbits/s dup=1 drop=0 speed=5.49x    frame=33331 fps=132 q=32.0 size=   47996kB time=00:23:10.35 bitrate= 282.8kbits/s dup=1 drop=0 speed=5.49x    frame=33380 fps=131 q=32.0 size=   48089kB time=00:23:12.36 bitrate= 282.9kbits/s dup=1 drop=0 speed=5.48x    frame=33457 fps=132 q=32.0 size=   48176kB time=00:23:15.60 bitrate= 282.8kbits/s dup=1 drop=0 speed=5.49x    frame=33534 fps=132 q=32.0 size=   48248kB time=00:23:18.80 bitrate= 282.6kbits/s dup=1 drop=0 speed=5.49x    frame=33592 fps=132 q=32.0 size=   48363kB time=00:23:21.19 bitrate= 282.7kbits/s dup=1 drop=0 speed=5.49x    frame=33668 fps=132 q=32.0 size=   48468kB time=00:23:24.39 bitrate= 282.7kbits/s dup=1 drop=0 speed=5.49x    frame=33764 fps=132 q=32.0 size=   48569kB time=00:23:28.40 bitrate= 282.5kbits/s dup=1 drop=0 speed=5.49x    frame=33855 fps=132 q=32.0 size=   48633kB time=00:23:32.20 bitrate= 282.1kbits/s dup=1 drop=0 speed= 5.5x    frame=33934 fps=132 q=32.0 size=   48749kB time=00:23:35.48 bitrate= 282.1kbits/s dup=1 drop=0 speed= 5.5x    frame=34001 fps=132 q=32.0 size=   48854kB time=00:23:38.26 bitrate= 282.2kbits/s dup=1 drop=0 speed= 5.5x    frame=34051 fps=132 q=32.0 size=   48925kB time=00:23:40.35 bitrate= 282.2kbits/s dup=1 drop=0 speed= 5.5x    frame=34094 fps=132 q=32.0 size=   49023kB time=00:23:42.18 bitrate= 282.4kbits/s dup=1 drop=0 speed=5.49x    frame=34139 fps=132 q=32.0 size=   49105kB time=00:23:44.02 bitrate= 282.5kbits/s dup=1 drop=0 speed=5.49x    frame=34186 fps=131 q=32.0 size=   49193kB time=00:23:46.02 bitrate= 282.6kbits/s dup=1 drop=0 speed=5.49x    frame=34250 fps=131 q=32.0 size=   49289kB time=00:23:48.67 bitrate= 282.6kbits/s dup=1 drop=0 speed=5.48x    frame=34300 fps=131 q=32.0 size=   49370kB time=00:23:50.76 bitrate= 282.7kbits/s dup=1 drop=0 speed=5.48x    frame=34340 fps=131 q=32.0 size=   49465kB time=00:23:52.42 bitrate= 282.9kbits/s dup=1 drop=0 speed=5.48x    frame=34399 fps=131 q=32.0 size=   49613kB time=00:23:54.90 bitrate= 283.2kbits/s dup=1 drop=0 speed=5.48x    frame=34448 fps=131 q=32.0 size=   49722kB time=00:23:56.90 bitrate= 283.5kbits/s dup=1 drop=0 speed=5.47x    frame=34494 fps=131 q=32.0 size=   49820kB time=00:23:58.82 bitrate= 283.7kbits/s dup=1 drop=0 speed=5.47x    frame=34565 fps=131 q=32.0 size=   49957kB time=00:24:01.81 bitrate= 283.8kbits/s dup=1 drop=0 speed=5.47x    frame=34671 fps=131 q=32.0 size=   50052kB time=00:24:06.25 bitrate= 283.5kbits/s dup=1 drop=0 speed=5.48x    frame=34730 fps=131 q=32.0 size=   50195kB time=00:24:08.68 bitrate= 283.8kbits/s dup=1 drop=0 speed=5.48x    frame=34812 fps=131 q=32.0 size=   50300kB time=00:24:12.13 bitrate= 283.8kbits/s dup=1 drop=0 speed=5.48x    frame=34919 fps=131 q=32.0 size=   50418kB time=00:24:16.57 bitrate= 283.6kbits/s dup=1 drop=0 speed=5.48x    frame=35015 fps=132 q=32.0 size=   50526kB time=00:24:20.58 bitrate= 283.4kbits/s dup=1 drop=0 speed=5.49x    frame=35110 fps=132 q=32.0 size=   50601kB time=00:24:24.51 bitrate= 283.0kbits/s dup=1 drop=0 speed=5.49x    frame=35207 fps=132 q=32.0 size=   50703kB time=00:24:28.39 bitrate= 282.9kbits/s dup=1 drop=0 speed= 5.5x    [mp4 @ 0x32ed7a0] Starting second pass: moving the moov atom to the beginning of the file
frame=35211 fps=132 q=-1.0 Lsize=   51582kB time=00:24:28.56 bitrate= 287.7kbits/s dup=1 drop=0 speed=5.49x    
video:41568kB audio:9179kB subtitle:0kB other streams:0kB global headers:0kB muxing overhead: 1.644570%
[libx264 @ 0x327b6a0] frame I:325   Avg QP:21.98  size: 16426
[libx264 @ 0x327b6a0] frame P:11422 Avg QP:24.85  size:  2595
[libx264 @ 0x327b6a0] frame B:23464 Avg QP:29.92  size:   323
[libx264 @ 0x327b6a0] consecutive B-frames:  3.5%  9.7% 39.8% 47.0%
[libx264 @ 0x327b6a0] mb I  I16..4: 26.6% 52.0% 21.3%
[libx264 @ 0x327b6a0] mb P  I16..4:  6.0%  5.2%  1.0%  P16..4: 34.1%  4.6%  3.8%  0.1%  0.0%    skip:45.2%
[libx264 @ 0x327b6a0] mb B  I16..4:  0.2%  0.2%  0.0%  B16..8: 15.7%  0.7%  0.1%  direct: 0.4%  skip:82.7%  L0:40.7% L1:57.8% BI: 1.5%
[libx264 @ 0x327b6a0] 8x8 transform intra:44.1% inter:64.3%
[libx264 @ 0x327b6a0] coded y,uvDC,uvAC intra: 27.9% 50.1% 7.9% inter: 1.9% 4.1% 0.0%
[libx264 @ 0x327b6a0] i16 v,h,dc,p: 40% 38% 15%  7%
[libx264 @ 0x327b6a0] i8 v,h,dc,ddl,ddr,vr,hd,vl,hu: 23% 22% 38%  3%  2%  3%  2%  3%  3%
[libx264 @ 0x327b6a0] i4 v,h,dc,ddl,ddr,vr,hd,vl,hu: 28% 23% 18%  5%  5%  5%  6%  5%  5%
[libx264 @ 0x327b6a0] i8c dc,h,v,p: 45% 27% 23%  5%
[libx264 @ 0x327b6a0] Weighted P-Frames: Y:2.1% UV:1.3%
[libx264 @ 0x327b6a0] ref P L0: 60.5% 10.7% 12.6%  4.5%  3.6%  3.1%  3.0%  1.4%  0.6%  0.0%
[libx264 @ 0x327b6a0] ref B L0: 77.5% 10.1%  5.4%  2.7%  2.1%  1.4%  0.9%
[libx264 @ 0x327b6a0] ref B L1: 90.8%  9.2%
[libx264 @ 0x327b6a0] kb/s:231.87
